<svg xmlns="http://www.w3.org/2000/svg" xmlns:xlink="http://www.w3.org/1999/xlink" width="148" height="48" viewBox="0 0 148 48"><defs><clipPath id="a"><rect width="148" height="48" transform="translate(1011 2729)" fill="#fff" stroke="#707070" stroke-width="1"></rect></clipPath></defs><g transform="translate(-1011 -2729)" clip-path="url(#a)"><path d="M99.472,328.737v-.392c3.869,0,6.163-2.318,10.937-9.262l-6.653-9.791c-1.149-1.712-1.8-2.382-3.745-2.382v-.392h14.272v.392c-1.617,0-1.9.643-1.9,1.458a3.727,3.727,0,0,0,.707,1.852l3.194,4.763c2.117-3.086,3.583-5.293,3.583-6.656,0-1.035-.794-1.405-2.151-1.405v-.392h8.175v.392c-2.94,0-4.462,1.62-9.289,8.534l6.936,10.321c1.2,1.76,2.406,2.57,3.9,2.57v.392H113.762v-.392c1.231,0,1.672-.46,1.672-1.225a4.065,4.065,0,0,0-.9-1.945l-3.821-5.618c-2.731,4.022-3.488,5.306-3.488,6.452,0,1.363,1.059,2.337,2.911,2.337v.392Zm103.6-13.158c.2-6.486,1.416-8.222,2.885-8.222s2.927,1.413,2.871,8.222Zm-8.222,1.7c0,9.355,9.659,14.071,18.016,9.969l-.265-.265c-5.475,1.826-9.344-2.2-9.344-9.707v-1.006h13.375c0-6.547-3.774-10.564-10.321-10.564A11.65,11.65,0,0,0,194.854,317.281Zm-39.473-8.373v-.373l10.21-2.408v3.536c2.265-1.667,4.676-3.52,7.254-3.52,2.739,0,4.554,1.278,5.232,3.692,2.331-1.707,4.819-3.692,7.486-3.692,3.536,0,5.531,2.117,5.526,6.087v13.507c0,1.852.394,2.2,1.71,2.2v.381H181.683v-.381c1.183,0,1.622-.561,1.622-1.948V311.1c0-2.673-2.747-2.326-5.078-.614a9.611,9.611,0,0,1,.143,1.733v13.518c0,1.852.4,2.207,1.712,2.207v.381H168.968v-.381c1.186,0,1.622-.561,1.622-1.948V311.1c0-2.646-2.678-2.334-4.991-.675v15.963c0,1.212.746,1.559,1.71,1.559v.381H155.4v-.381c1.622,0,2.411-1.164,2.411-2.94V311.428A2.676,2.676,0,0,0,155.381,308.908ZM136.465,323.3c0-2.826,1.238-5.557,5.316-6.489l.029,6.761a2.75,2.75,0,0,1-2.713,2.7c-1.477-.018-2.633-.945-2.633-2.969Zm-7.812.81c0,4.038,3.932,5.028,5.769,5.028,3.3,0,6.552-1.837,7.608-4.4.413,3.006,2.2,4.4,5.586,4.4a6.359,6.359,0,0,0,6.118-3.475l-.3-.193c-1.617,1.389-3.7.347-3.7-2.477V312.642c0-5.221-6.7-7.913-12.787-5.79l.063.36c3.422.024,4.9,2.313,4.9,6.351l.013,2.646C132.022,317.393,128.653,320.018,128.653,324.112ZM86.714,315.58c.193-6.486,1.413-8.222,2.882-8.222s2.927,1.413,2.871,8.222Zm-8.635,2.059c0,10.138,11.533,14.949,20.271,8.749l-.265-.265c-6.716,3.911-11.6.016-11.6-8.487v-1H99.858c0-6.518-3.774-10.514-10.321-10.514A11.621,11.621,0,0,0,78.079,317.639ZM134,314.357a3.231,3.231,0,0,0,3.289-3.289A3.289,3.289,0,1,0,134,314.357Zm84.7,14.793A3.234,3.234,0,0,0,222,325.861a3.289,3.289,0,1,0-3.289,3.289Z" transform="translate(934.316 2435.764)" fill="#fff"></path></g></svg>