<svg xmlns="http://www.w3.org/2000/svg" xmlns:xlink="http://www.w3.org/1999/xlink" width="127" height="48" viewBox="0 0 127 48"><defs><clipPath id="a"><rect width="127" height="48" transform="translate(1025 2729)" fill="#fff" stroke="#707070" stroke-width="1"></rect></clipPath></defs><g transform="translate(-1025 -2729)" clip-path="url(#a)"><g transform="translate(1024.234 2665.843)"><path d="M18237.014,13622.807a18.579,18.579,0,0,1-7.5-1.569,19.623,19.623,0,0,1-6.08-4.1,18.794,18.794,0,0,1-4.1-6.13,19.2,19.2,0,0,1-1.574-7.552,18.7,18.7,0,0,1,1.266-6.788,19.554,19.554,0,0,1,3.295-5.674,18.642,18.642,0,0,1,4.965-4.151,18.967,18.967,0,0,1,9.572-2.687h.506a19.3,19.3,0,0,1,14.336,6.839,19.4,19.4,0,0,1,3.295,5.674,18.7,18.7,0,0,1,1.266,6.788,20,20,0,0,1-5.619,13.682,19.524,19.524,0,0,1-6.084,4.1A18.547,18.547,0,0,1,18237.014,13622.807Zm-1.467-1.771h0l2.176.1a18.945,18.945,0,0,0,5.371-.962,18.157,18.157,0,0,0,4.559-2.278,7.3,7.3,0,0,1-2.732.76,6.575,6.575,0,0,1-1.018.051,14.5,14.5,0,0,1-8.068,2.33C18235.738,13621.037,18235.643,13621.037,18235.547,13621.035Zm-13.678-14.133h0a13.428,13.428,0,0,0,.055,2.48,12.707,12.707,0,0,0,1.465,4.307,12.861,12.861,0,0,0,2.891,3.6l.607.507a18.44,18.44,0,0,0,6.738,2.936,10.01,10.01,0,0,0,1.9.18,12.122,12.122,0,0,0,2.752-.331,13.051,13.051,0,0,0,4.561-1.975,6.33,6.33,0,0,1-3.393-2.075l-.354-.405a20.75,20.75,0,0,1-2.154.115,17.653,17.653,0,0,1-3.621-.368,18,18,0,0,1-6.539-2.991,16.779,16.779,0,0,1-4.607-5.37l-.3-.608Zm31.154-2.381a16.24,16.24,0,0,1-3.447,6.127,13.1,13.1,0,0,1-1.771,4.156,13.686,13.686,0,0,1-3.092,3.341c.115.009.232.009.346.009a6.8,6.8,0,0,0,2.24-.409,8.375,8.375,0,0,0,2.328-1.372,21.479,21.479,0,0,0,2.789-3.239l.152-.2.031-.064c.318-.685.68-1.46.93-2.168a9.2,9.2,0,0,0,.457-2.228,7.187,7.187,0,0,0-.1-2.075,7.115,7.115,0,0,0-.4-1.09l-.006-.018,0,0Zm-5.828,8.31a17.357,17.357,0,0,1-6.684,2.985,4.8,4.8,0,0,0,1.316,1.367,5.866,5.866,0,0,0,1.721.81,13.659,13.659,0,0,0,2.182-2.379A12.074,12.074,0,0,0,18247.2,13612.831Zm-24.371-21.369a18.536,18.536,0,0,0-2.676,4.9,19.551,19.551,0,0,0-1.113,5.826,18.757,18.757,0,0,0,1.467,7.7,17.825,17.825,0,0,0,1.873,3.346,18.757,18.757,0,0,0,2.43,2.839,13.558,13.558,0,0,1-3.492-7.552,17.145,17.145,0,0,1-.051-2.835,16.069,16.069,0,0,1-1.012-5.521,17.364,17.364,0,0,1,.859-5.27A19.922,19.922,0,0,1,18222.824,13591.462Zm11.455,4.042a13.12,13.12,0,0,0-5.42,1.266,12.593,12.593,0,0,0-4.357,3.295,12.4,12.4,0,0,0-2.025,3.442,15.687,15.687,0,0,0,1.721,4.357,15.859,15.859,0,0,0,4.561,4.966,16.792,16.792,0,0,0,6.129,2.688,19.138,19.138,0,0,0,3.494.317c.223,0,.463,0,.713-.014a7.454,7.454,0,0,1-1.068-2.991,9.913,9.913,0,0,1,.051-3.442,11.858,11.858,0,0,1,1.574-4.1,12.465,12.465,0,0,1,3.139-3.346,11.415,11.415,0,0,1,2.531-1.418l-.451-.506a14.451,14.451,0,0,0-10.59-4.51Zm11.906,7.143a8.882,8.882,0,0,0-3.143,1.771,10.945,10.945,0,0,0-2.531,3.143,10.66,10.66,0,0,0-1.018,3.6,7.677,7.677,0,0,0,.309,3.24c.027.061.051.119.074.177l.029.075a3.628,3.628,0,0,0,.352.71,12.59,12.59,0,0,0,3.594-1.013,13.251,13.251,0,0,0,3.4-1.924l.1-.051a18.008,18.008,0,0,0,.455-2.282,13.418,13.418,0,0,0-.2-3.746A13.714,13.714,0,0,0,18246.186,13602.646Zm2.582-.405a11.359,11.359,0,0,1,.961,3.4,15.157,15.157,0,0,1,.1,3.392l-.2,1.113a14.959,14.959,0,0,0,3.145-6.028l-.1-.1a9.973,9.973,0,0,0-1.02-.913A4.989,4.989,0,0,0,18248.768,13602.241Zm-2.125-15.245h0a16.981,16.981,0,0,1,3.035,2.682,15.265,15.265,0,0,1,3.953,11.4c-.045.578-.129,1.122-.209,1.647l0,.019c-.012.085-.025.171-.039.257a9.744,9.744,0,0,1,.707,1.418,9.382,9.382,0,0,1,.355,4.611,19.437,19.437,0,0,0,1.113-6.839,21.331,21.331,0,0,0-.811-4.763,20.831,20.831,0,0,0-1.822-4.2,16.4,16.4,0,0,0-2.789-3.5A15.531,15.531,0,0,0,18246.643,13587Zm1.119,13.17a7.164,7.164,0,0,1,1.865.2,6.762,6.762,0,0,1,3.549,2.278l.051-.709a15.036,15.036,0,0,0-3.346-10.787,15.363,15.363,0,0,0-9.268-5.472,16.751,16.751,0,0,0-3.1-.3,15.62,15.62,0,0,0-7.539,1.968,14.958,14.958,0,0,0-7.092,8.61,14.542,14.542,0,0,0-.557,5.927,13.558,13.558,0,0,1,2.178-3.543,13.752,13.752,0,0,1,4.762-3.6,15.217,15.217,0,0,1,5.877-1.316h0a15.013,15.013,0,0,1,5.979,1.215,14.276,14.276,0,0,1,5.168,3.649,13.242,13.242,0,0,1,1.443,1.839l.023.034Zm25.828,17.072a12.684,12.684,0,0,1-5.877-1.27,9.627,9.627,0,0,1-4.105-3.544,8.073,8.073,0,0,1-1.062-2.839,21.179,21.179,0,0,1-.3-4.4v-13.424h8.867v13.525a6.688,6.688,0,0,0,.557,3.239,2.487,2.487,0,0,0,3.848,0,6.394,6.394,0,0,0,.561-3.239v-13.525h8.914v13.424a26.846,26.846,0,0,1-.3,4.4,8.361,8.361,0,0,1-1.17,2.839,9.255,9.255,0,0,1-4.049,3.544A12.835,12.835,0,0,1,18273.59,13617.238Zm28.416,0a13.385,13.385,0,0,1-9.471-3.746,12.617,12.617,0,0,1-2.789-4.155,14.094,14.094,0,0,1,0-10.23,11.977,11.977,0,0,1,2.789-4.155,12.56,12.56,0,0,1,4.252-2.784,14.638,14.638,0,0,1,10.438,0,12.827,12.827,0,0,1,4.307,2.784,11.3,11.3,0,0,1,2.785,4.155,13.051,13.051,0,0,1,.961,5.168,12.636,12.636,0,0,1-.961,5.012,12.267,12.267,0,0,1-2.836,4.206,13.965,13.965,0,0,1-4.256,2.784A14.858,14.858,0,0,1,18302.006,13617.234Zm0-17.727a3.6,3.6,0,0,0-2.986,1.316,4.725,4.725,0,0,0-1.164,3.446,4.534,4.534,0,0,0,1.164,3.341,3.707,3.707,0,0,0,2.986,1.266,3.821,3.821,0,0,0,3.043-1.266,4.781,4.781,0,0,0,1.164-3.341,4.976,4.976,0,0,0-1.164-3.446A3.71,3.71,0,0,0,18302.006,13599.508Zm34.6,17.068h-17.578v-24.818h8.918v16.765h8.66v8.053Z" transform="translate(-18213.002 -13517.576)" fill="#fff"></path></g></g></svg>